<mxfile host="app.diagrams.net" modified="2021-03-10T09:31:46.349Z" agent="5.0 (X11; Linux x86_64) AppleWebKit/537.36 (KHTML, like Gecko) Chrome/87.0.4280.141 Safari/537.36" etag="bv1Ak1TabwrEiIC6Y4uP" version="14.4.6" type="github">
  <diagram id="EJ-8bm11QLcLi5T-vXhF" name="Page-1">
    <mxGraphModel dx="1069" dy="574" grid="1" gridSize="10" guides="1" tooltips="1" connect="1" arrows="1" fold="1" page="1" pageScale="1" pageWidth="850" pageHeight="1100" math="0" shadow="0">
      <root>
        <mxCell id="0" />
        <mxCell id="1" parent="0" />
        <mxCell id="hkcfiitKyaItqLOflqOH-59" value="" style="rounded=0;whiteSpace=wrap;html=1;fillColor=#FFFFFF;fontSize=8;" vertex="1" parent="1">
          <mxGeometry x="370" y="150" width="410" height="400" as="geometry" />
        </mxCell>
        <mxCell id="hkcfiitKyaItqLOflqOH-52" value="" style="rounded=0;whiteSpace=wrap;html=1;fontSize=8;" vertex="1" parent="1">
          <mxGeometry x="120" y="430" width="180" height="120" as="geometry" />
        </mxCell>
        <mxCell id="hkcfiitKyaItqLOflqOH-48" value="" style="rounded=0;whiteSpace=wrap;html=1;fontSize=8;" vertex="1" parent="1">
          <mxGeometry x="120" y="150" width="180" height="120" as="geometry" />
        </mxCell>
        <mxCell id="hkcfiitKyaItqLOflqOH-45" value="" style="rounded=0;whiteSpace=wrap;html=1;fontSize=8;" vertex="1" parent="1">
          <mxGeometry x="455" y="360" width="250" height="140" as="geometry" />
        </mxCell>
        <mxCell id="hkcfiitKyaItqLOflqOH-1" value="UI Test" style="rounded=0;whiteSpace=wrap;html=1;fontSize=8;fillColor=#FFFFCC;" vertex="1" parent="1">
          <mxGeometry x="175" y="180" width="70" height="20" as="geometry" />
        </mxCell>
        <mxCell id="hkcfiitKyaItqLOflqOH-2" value="BYOAI Flow" style="text;html=1;align=center;verticalAlign=middle;resizable=0;points=[];autosize=1;" vertex="1" parent="1">
          <mxGeometry x="20" y="70" width="80" height="20" as="geometry" />
        </mxCell>
        <mxCell id="hkcfiitKyaItqLOflqOH-3" value="Present to Client" style="rounded=0;whiteSpace=wrap;html=1;fontSize=8;" vertex="1" parent="1">
          <mxGeometry x="175" y="230" width="70" height="20" as="geometry" />
        </mxCell>
        <mxCell id="hkcfiitKyaItqLOflqOH-4" value="" style="endArrow=classic;html=1;exitX=0.5;exitY=1;exitDx=0;exitDy=0;entryX=0.5;entryY=0;entryDx=0;entryDy=0;" edge="1" parent="1" source="hkcfiitKyaItqLOflqOH-1" target="hkcfiitKyaItqLOflqOH-3">
          <mxGeometry width="50" height="50" relative="1" as="geometry">
            <mxPoint x="425" y="230" as="sourcePoint" />
            <mxPoint x="475" y="180" as="targetPoint" />
          </mxGeometry>
        </mxCell>
        <mxCell id="hkcfiitKyaItqLOflqOH-10" value="" style="endArrow=classic;html=1;exitX=0;exitY=0.5;exitDx=0;exitDy=0;entryX=1;entryY=0.5;entryDx=0;entryDy=0;" edge="1" parent="1" source="hkcfiitKyaItqLOflqOH-27" target="hkcfiitKyaItqLOflqOH-1">
          <mxGeometry width="50" height="50" relative="1" as="geometry">
            <mxPoint x="135" y="350" as="sourcePoint" />
            <mxPoint x="265" y="355" as="targetPoint" />
            <Array as="points">
              <mxPoint x="280" y="320" />
            </Array>
          </mxGeometry>
        </mxCell>
        <mxCell id="hkcfiitKyaItqLOflqOH-11" value="BYOAI&amp;nbsp; Deploy Flow" style="rounded=0;whiteSpace=wrap;html=1;fontSize=8;" vertex="1" parent="1">
          <mxGeometry x="465" y="170" width="230" height="20" as="geometry" />
        </mxCell>
        <mxCell id="hkcfiitKyaItqLOflqOH-15" value="Installation" style="rounded=0;whiteSpace=wrap;html=1;fontSize=8;fillColor=#F19C99;" vertex="1" parent="1">
          <mxGeometry x="575" y="210" width="80" height="20" as="geometry" />
        </mxCell>
        <mxCell id="hkcfiitKyaItqLOflqOH-16" value="X1 &amp;amp; Storm1 Ready" style="rounded=0;whiteSpace=wrap;html=1;fontSize=8;" vertex="1" parent="1">
          <mxGeometry x="410" y="110" width="90" height="20" as="geometry" />
        </mxCell>
        <mxCell id="hkcfiitKyaItqLOflqOH-17" value="" style="endArrow=classic;html=1;entryX=0;entryY=0.5;entryDx=0;entryDy=0;fontSize=8;" edge="1" parent="1" target="hkcfiitKyaItqLOflqOH-16">
          <mxGeometry width="50" height="50" relative="1" as="geometry">
            <mxPoint x="360" y="120" as="sourcePoint" />
            <mxPoint x="455" y="410" as="targetPoint" />
          </mxGeometry>
        </mxCell>
        <mxCell id="hkcfiitKyaItqLOflqOH-18" value="" style="endArrow=classic;html=1;exitX=1;exitY=0.5;exitDx=0;exitDy=0;entryX=0.5;entryY=0;entryDx=0;entryDy=0;fontSize=8;" edge="1" parent="1" source="hkcfiitKyaItqLOflqOH-16" target="hkcfiitKyaItqLOflqOH-15">
          <mxGeometry width="50" height="50" relative="1" as="geometry">
            <mxPoint x="405" y="460" as="sourcePoint" />
            <mxPoint x="455" y="410" as="targetPoint" />
            <Array as="points">
              <mxPoint x="615" y="120" />
            </Array>
          </mxGeometry>
        </mxCell>
        <mxCell id="hkcfiitKyaItqLOflqOH-20" value="BYOAI New Version Release" style="rounded=0;whiteSpace=wrap;html=1;fontSize=8;" vertex="1" parent="1">
          <mxGeometry x="135" y="490" width="90" height="20" as="geometry" />
        </mxCell>
        <mxCell id="hkcfiitKyaItqLOflqOH-21" value="" style="endArrow=classic;html=1;exitX=0.5;exitY=1;exitDx=0;exitDy=0;fontSize=8;entryX=0.5;entryY=0;entryDx=0;entryDy=0;" edge="1" parent="1" source="hkcfiitKyaItqLOflqOH-15" target="hkcfiitKyaItqLOflqOH-22">
          <mxGeometry width="50" height="50" relative="1" as="geometry">
            <mxPoint x="405" y="450" as="sourcePoint" />
            <mxPoint x="640" y="330" as="targetPoint" />
            <Array as="points" />
          </mxGeometry>
        </mxCell>
        <mxCell id="hkcfiitKyaItqLOflqOH-22" value="Sanity Test" style="rounded=0;whiteSpace=wrap;html=1;fontSize=8;fillColor=#FFFFCC;" vertex="1" parent="1">
          <mxGeometry x="575" y="250" width="80" height="20" as="geometry" />
        </mxCell>
        <mxCell id="hkcfiitKyaItqLOflqOH-23" value="" style="endArrow=classic;html=1;exitX=0.5;exitY=1;exitDx=0;exitDy=0;fontSize=8;entryX=0.5;entryY=0;entryDx=0;entryDy=0;" edge="1" parent="1" source="hkcfiitKyaItqLOflqOH-22" target="hkcfiitKyaItqLOflqOH-24">
          <mxGeometry width="50" height="50" relative="1" as="geometry">
            <mxPoint x="405" y="450" as="sourcePoint" />
            <mxPoint x="640" y="410" as="targetPoint" />
          </mxGeometry>
        </mxCell>
        <mxCell id="hkcfiitKyaItqLOflqOH-24" value="Send to Factory" style="rounded=0;whiteSpace=wrap;html=1;fontSize=8;" vertex="1" parent="1">
          <mxGeometry x="575" y="290" width="80" height="20" as="geometry" />
        </mxCell>
        <mxCell id="hkcfiitKyaItqLOflqOH-26" value="Configure network" style="rounded=0;whiteSpace=wrap;html=1;fontSize=8;" vertex="1" parent="1">
          <mxGeometry x="575" y="330" width="80" height="20" as="geometry" />
        </mxCell>
        <mxCell id="hkcfiitKyaItqLOflqOH-27" value="Sanity Test" style="rounded=0;whiteSpace=wrap;html=1;fontSize=8;fillColor=#FFFFCC;" vertex="1" parent="1">
          <mxGeometry x="575" y="370" width="80" height="20" as="geometry" />
        </mxCell>
        <mxCell id="hkcfiitKyaItqLOflqOH-29" value="" style="endArrow=classic;html=1;exitX=0.5;exitY=1;exitDx=0;exitDy=0;fontSize=8;entryX=0.5;entryY=0;entryDx=0;entryDy=0;" edge="1" parent="1" source="hkcfiitKyaItqLOflqOH-24" target="hkcfiitKyaItqLOflqOH-26">
          <mxGeometry width="50" height="50" relative="1" as="geometry">
            <mxPoint x="625" y="240" as="sourcePoint" />
            <mxPoint x="665" y="320" as="targetPoint" />
            <Array as="points" />
          </mxGeometry>
        </mxCell>
        <mxCell id="hkcfiitKyaItqLOflqOH-30" value="" style="endArrow=classic;html=1;exitX=0.5;exitY=1;exitDx=0;exitDy=0;fontSize=8;entryX=0.5;entryY=0;entryDx=0;entryDy=0;" edge="1" parent="1" source="hkcfiitKyaItqLOflqOH-26" target="hkcfiitKyaItqLOflqOH-27">
          <mxGeometry width="50" height="50" relative="1" as="geometry">
            <mxPoint x="635" y="250" as="sourcePoint" />
            <mxPoint x="635" y="270" as="targetPoint" />
            <Array as="points" />
          </mxGeometry>
        </mxCell>
        <mxCell id="hkcfiitKyaItqLOflqOH-33" value="Upgrade BYOAI" style="rounded=0;whiteSpace=wrap;html=1;fontSize=8;fillColor=#FFFFCC;" vertex="1" parent="1">
          <mxGeometry x="575" y="450" width="80" height="20" as="geometry" />
        </mxCell>
        <mxCell id="hkcfiitKyaItqLOflqOH-40" value="Client Using" style="rounded=0;whiteSpace=wrap;html=1;fontSize=8;" vertex="1" parent="1">
          <mxGeometry x="575" y="410" width="80" height="20" as="geometry" />
        </mxCell>
        <mxCell id="hkcfiitKyaItqLOflqOH-42" value="" style="endArrow=classic;html=1;fontSize=8;entryX=0;entryY=0.5;entryDx=0;entryDy=0;exitX=1;exitY=0.5;exitDx=0;exitDy=0;" edge="1" parent="1" source="hkcfiitKyaItqLOflqOH-20" target="hkcfiitKyaItqLOflqOH-33">
          <mxGeometry width="50" height="50" relative="1" as="geometry">
            <mxPoint x="535" y="460" as="sourcePoint" />
            <mxPoint x="485" y="500" as="targetPoint" />
            <Array as="points">
              <mxPoint x="310" y="460" />
            </Array>
          </mxGeometry>
        </mxCell>
        <mxCell id="hkcfiitKyaItqLOflqOH-43" value="" style="endArrow=classic;html=1;fontSize=8;exitX=0.5;exitY=1;exitDx=0;exitDy=0;entryX=1;entryY=0.5;entryDx=0;entryDy=0;" edge="1" parent="1" source="hkcfiitKyaItqLOflqOH-33" target="hkcfiitKyaItqLOflqOH-27">
          <mxGeometry width="50" height="50" relative="1" as="geometry">
            <mxPoint x="615" y="510" as="sourcePoint" />
            <mxPoint x="715" y="430" as="targetPoint" />
            <Array as="points">
              <mxPoint x="615" y="490" />
              <mxPoint x="655" y="490" />
              <mxPoint x="685" y="490" />
              <mxPoint x="675" y="380" />
            </Array>
          </mxGeometry>
        </mxCell>
        <mxCell id="hkcfiitKyaItqLOflqOH-46" value="Update =&amp;gt; Test" style="text;html=1;strokeColor=none;fillColor=none;align=center;verticalAlign=middle;whiteSpace=wrap;rounded=0;fontSize=8;" vertex="1" parent="1">
          <mxGeometry x="475" y="440" width="70" height="20" as="geometry" />
        </mxCell>
        <mxCell id="hkcfiitKyaItqLOflqOH-47" value="" style="endArrow=classic;html=1;fontSize=8;exitX=0.5;exitY=1;exitDx=0;exitDy=0;entryX=0;entryY=0.5;entryDx=0;entryDy=0;" edge="1" parent="1" source="hkcfiitKyaItqLOflqOH-3" target="hkcfiitKyaItqLOflqOH-40">
          <mxGeometry width="50" height="50" relative="1" as="geometry">
            <mxPoint x="425" y="420" as="sourcePoint" />
            <mxPoint x="395" y="430" as="targetPoint" />
            <Array as="points">
              <mxPoint x="250" y="350" />
            </Array>
          </mxGeometry>
        </mxCell>
        <mxCell id="hkcfiitKyaItqLOflqOH-51" value="CS" style="text;html=1;strokeColor=none;fillColor=none;align=center;verticalAlign=middle;whiteSpace=wrap;rounded=0;fontSize=8;" vertex="1" parent="1">
          <mxGeometry x="125" y="160" width="40" height="20" as="geometry" />
        </mxCell>
        <mxCell id="hkcfiitKyaItqLOflqOH-53" value="Product Team" style="text;html=1;strokeColor=none;fillColor=none;align=center;verticalAlign=middle;whiteSpace=wrap;rounded=0;fontSize=8;" vertex="1" parent="1">
          <mxGeometry x="135" y="440" width="40" height="20" as="geometry" />
        </mxCell>
        <mxCell id="hkcfiitKyaItqLOflqOH-60" value="Deploy Team" style="text;html=1;strokeColor=none;fillColor=none;align=center;verticalAlign=middle;whiteSpace=wrap;rounded=0;fontSize=8;" vertex="1" parent="1">
          <mxGeometry x="385" y="170" width="40" height="20" as="geometry" />
        </mxCell>
      </root>
    </mxGraphModel>
  </diagram>
</mxfile>
